<?xml version="1.0" encoding="UTF-8"?>
<svg width="18px" height="18px" viewBox="0 0 18 18" version="1.1" xmlns="http://www.w3.org/2000/svg" xmlns:xlink="http://www.w3.org/1999/xlink">
    <!-- Generator: Sketch 44.1 (41455) - http://www.bohemiancoding.com/sketch -->
    <title>Atoms/Icons/Account Number</title>
    <desc>Created with Sketch.</desc>
    <defs></defs>
    <g id="Symbols" stroke="none" stroke-width="1" fill="none" fill-rule="evenodd">
        <g id="Atoms/Icons/Account-Number" stroke="#0982C6">
            <g transform="translate(1.000000, 1.000000)" id="Shape">
                <path d="M7.98337391,15.9645913 C12.3922087,15.9645913 15.9645217,12.3890783 15.9645217,7.98086957 C15.9645217,3.57106087 12.3921391,3.55271368e-15 7.98337391,3.55271368e-15 C3.57516522,3.55271368e-15 -2.48689958e-14,3.57106087 -2.48689958e-14,7.98086957 L-2.48689958e-14,15.9645913 L7.98337391,15.9645913 L7.98337391,15.9645913 Z"></path>
                <path d="M8.24431304,8.8930087 L8.24431304,8.50636522 C8.50003478,8.2448 8.70170435,7.88 8.8210087,7.45286957 C9.10566957,7.2530087 9.18045217,6.83812174 8.94170435,6.54448696 L8.94170435,5.67902609 C8.94170435,4.78553043 8.44417391,4.17391304 7.30671304,4.17391304 C6.1986087,4.17391304 5.67109565,4.78553043 5.67109565,5.67902609 L5.67109565,6.54483478 C5.43325217,6.83763478 5.5072,7.25238261 5.7917913,7.4528 C5.91116522,7.88006957 6.11297391,8.24486957 6.36876522,8.50643478 L6.36876522,8.89307826 C6.25412174,9.26121739 4.88542609,9.8528 3.65286957,10.3294609 C3.54782609,10.3702261 3.47826087,10.4724174 3.47826087,10.5866435 L3.47826087,11.5536 C3.47826087,11.7054609 3.59972174,11.8288696 3.74942609,11.8288696 L10.8634435,11.8288696 C11.0132174,11.8288696 11.1346783,11.7054609 11.1346783,11.5536 L11.1346783,10.5866435 C11.1348174,10.4723478 11.0652522,10.3698783 10.9602087,10.3293913 C9.72765217,9.85307826 8.35930435,9.26163478 8.24431304,8.8930087 Z"></path>
            </g>
        </g>
    </g>
</svg>