<?xml version="1.0" encoding="UTF-8"?>
<svg width="24px" height="24px" viewBox="0 0 24 24" version="1.1" xmlns="http://www.w3.org/2000/svg" xmlns:xlink="http://www.w3.org/1999/xlink">
    <!-- Generator: Sketch 44.1 (41455) - http://www.bohemiancoding.com/sketch -->
    <title>Atoms/Avatars/Bot</title>
    <desc>Created with Sketch.</desc>
    <defs>
        <circle id="path-1" cx="12" cy="12" r="12"></circle>
    </defs>
    <g id="Symbols" stroke="none" stroke-width="1" fill="none" fill-rule="evenodd">
        <g id="Atoms/Avatars/Bot">
            <g id="Atoms-/-Avatars/-Bot">
                <mask id="mask-2" fill="white">
                    <use xlink:href="#path-1"></use>
                </mask>
                <use id="Mask" fill="#56B948" xlink:href="#path-1"></use>
                <path d="M20.5328645,15.4121171 L19.8978357,15.4121171 L19.8978357,14.4939386 C19.8978357,13.0125519 18.7176373,11.8174107 17.2781507,11.8174107 L13.0002148,11.8174107 L13.0002148,9.61566048 C13.5627443,9.280667 13.9407539,8.65486813 13.9407539,7.93711026 C13.9407539,6.86709624 13.0965113,6 12.0574596,6 C11.016825,6 10.1684138,6.86747623 10.1684138,7.93711026 C10.1684138,8.65486813 10.5425189,9.280667 11.1049956,9.61566048 L11.1049956,11.8174107 L6.83370806,11.8174107 C5.39379942,11.8174107 4.23687037,13.0125519 4.23687037,14.4939386 L4.23687037,15.4121171 L3.57857215,15.4121171 C2.76794089,15.4121171 2.10526316,16.1019182 2.10526316,16.9361176 L2.10526316,20.198762 C2.10526316,21.03231 2.76794089,21.7164111 3.57857215,21.7164111 L4.23687037,21.7164111 L4.23687037,22.6417553 C4.23687037,24.1233591 5.39379942,25.3104661 6.83370806,25.3104661 L8.05574933,25.3104661 L8.05574933,26.7248106 C8.05574933,27.5590644 8.71985172,28.2352941 9.53074681,28.2352941 L14.5813231,28.2352941 C15.3921654,28.2352941 16.0495138,27.5590644 16.0495138,26.7248106 L16.0495138,25.3110632 L17.2781507,25.3110632 C18.7182704,25.3110632 19.8978357,24.1233591 19.8978357,22.6417553 L19.8978357,21.7170082 L20.5328645,21.7170082 C21.3437069,21.7170082 22,21.0333957 22,20.199142 L22,16.9365519 C22,16.1025696 21.3445511,15.4121171 20.5328645,15.4121171 Z M6.33760996,16.4309946 C6.33760996,15.4507138 7.11014477,14.656794 8.06255604,14.656794 C9.014809,14.656794 9.78649957,15.4507138 9.78649957,16.4309946 C9.78649957,17.4113296 9.014809,18.2052495 8.06255604,18.2052495 C7.11014477,18.2052495 6.33760996,17.4113296 6.33760996,16.4309946 Z M14.4049291,22.9051467 L9.7069297,22.9051467 C8.92864349,22.9051467 8.29751933,22.2598594 8.29751933,21.4581225 C8.29751933,20.6571998 8.92864349,20.0119126 9.7069297,20.0119126 L14.4052985,20.0119126 C15.1837957,20.0119126 15.8149199,20.6571998 15.8149199,21.4581225 C15.8149199,22.258828 15.1833736,22.9051467 14.4049291,22.9051467 Z M16.0495138,18.2052495 C15.0970498,18.2052495 14.3249371,17.4113296 14.3249371,16.4309946 C14.3249371,15.4507138 15.0970498,14.656794 16.0495138,14.656794 C17.0021362,14.656794 17.7744599,15.4507138 17.7744599,16.4309946 C17.7744599,17.4113296 17.0021362,18.2052495 16.0495138,18.2052495 Z" id="005-technology-2" fill="#FFFFFF" mask="url(#mask-2)"></path>
            </g>
        </g>
    </g>
</svg>