<?xml version="1.0" encoding="UTF-8"?>
<svg width="24px" height="24px" viewBox="0 0 24 24" version="1.1" xmlns="http://www.w3.org/2000/svg" xmlns:xlink="http://www.w3.org/1999/xlink">
    <!-- Generator: Sketch 44.1 (41455) - http://www.bohemiancoding.com/sketch -->
    <title>Atoms/Avatars/User</title>
    <desc>Created with Sketch.</desc>
    <defs>
        <circle id="path-1" cx="12" cy="12" r="12"></circle>
    </defs>
    <g id="Symbols" stroke="none" stroke-width="1" fill="none" fill-rule="evenodd">
        <g id="Atoms/Avatars/User">
            <g id="Atoms-/-Avatar-User">
                <mask id="mask-2" fill="white">
                    <use xlink:href="#path-1"></use>
                </mask>
                <use id="Mask" fill="#0982C6" xlink:href="#path-1"></use>
                <path d="M19.9741708,21.4891247 C17.297669,20.431358 14.3264635,19.1178481 14.0767622,18.2992613 L14.0767622,17.4406723 C14.6320012,16.8598069 15.069942,16.0496581 15.3290188,15.1011683 C15.9521781,14.6537477 16.1063533,13.7319261 15.5911166,13.0837653 L15.5911166,11.1616802 C15.5911166,9.17740407 14.5107445,7.8191 12.0408166,7.8191 C9.63464225,7.8191 8.48916241,9.17740407 8.48916241,11.1616802 L8.48916241,13.0844945 C7.97475905,13.7320302 8.12935091,14.6531227 8.7512602,15.1008557 C9.01044116,16.0496581 9.4486945,16.8598069 10.0041418,17.4407764 L10.0041418,18.2993655 C9.75516973,19.1169105 6.783235,20.430733 4.10673324,21.4892289 C3.87859566,21.5797547 3.72764983,21.8067464 3.72764983,22.0604062 L3.72764983,24.2078163 C3.72764983,24.5450224 3.9913102,24.8191 4.31653647,24.8191 L19.7642634,24.8191 C20.0893855,24.8191 20.35315,24.5450224 20.35315,24.2078163 L20.35315,22.0604062 C20.3532542,21.8066422 20.2022042,21.5790255 19.9741708,21.4891247 L19.9741708,21.4891247 Z" id="Shape" fill="#FFFFFF" mask="url(#mask-2)"></path>
            </g>
        </g>
    </g>
</svg>